<svg xmlns="http://www.w3.org/2000/svg" height="91" width="284" viewBox="0 0 284 91"><title>logo_gy</title><path d="M37.641 19.148s-.083 15.166-.083 17.564c-1.302.754-3.351.916-4.835.752-3.149-.346-4.833-1.816-5.957-3.398-1.564-2.206-2.116-5.418-2.091-11.03 0 0-.096-12.3.103-18.15 1.3-.753 3.349-.914 4.834-.751 3.149.347 4.953 1.858 6.077 3.44 1.563 2.206 1.977 5.963 1.952 11.573M36.048 1.233H0v57.06h24.77V40.364h11.278c17.702 0 23.63-11.618 23.63-19.688 0-7.904-5.928-19.442-23.63-19.442m74.292 54.397c-1.3.754-3.35.915-4.83.752-3.15-.347-4.95-1.857-6.078-3.44-1.618-2.28-1.873-5.591-1.873-11.566 0-3.233-.129-9.684-.129-13.278 0-10.177.018-22.336.132-24.127 1.302-.754 3.348-.915 4.838-.752 3.15.347 4.95 1.857 6.07 3.44 1.62 2.28 1.96 5.591 2.01 11.566.12 15.847 0 34.8-.14 37.405M103.91 0C86.95 0 71.636 11.362 71.636 29.723c0 15.972 13.338 29.804 32.274 29.804 18.03 0 32.36-12.185 32.36-29.804C136.27 12.02 121.2 0 103.91 0m105.74 28.734H187.5v27.062c-1.14.66-2.93.8-4.23.658-2.76-.303-4.33-1.625-5.32-3.011-1.41-1.994-1.44-4.576-1.64-10.12-.05-1.538-.19-7.892-.19-12.853 0-5.27.19-13.828.19-14.945 0-3.534.24-6.449 1.98-8.797 1.73-2.339 5.79-4.35 11.76-2.452 5.23 1.305 9.69 5.583 12.84 10.272l2.25-1.972c-3.29-4.902-7.07-7.48-8.31-8.231-.03-.016-.07-.025-.1-.045-4.89-3.085-10.58-4.3-16.35-4.3-13.18 0-30.8 8.81-30.8 30.547 0 17.29 12.6 28.98 30.88 28.98 5.76 0 8.81-.657 19.76-4.774 2.7-1.024 5.4-1.72 8.34-1.707.86.003 1.13.016 1.13.016v-1.168l-.04-23.16zm73.78 0h-22.15v27.062c-1.14.66-2.93.8-4.23.658-2.76-.303-4.34-1.625-5.32-3.011-1.41-1.994-1.44-4.576-1.64-10.12-.05-1.538-.19-7.892-.19-12.853 0-5.27.19-13.828.19-14.945 0-3.534.24-6.449 1.98-8.797 1.73-2.339 5.79-4.35 11.76-2.452 5.23 1.305 9.69 5.583 12.84 10.272l2.25-1.972c-3.29-4.902-7.08-7.48-8.31-8.231-.03-.016-.07-.025-.1-.045-4.89-3.085-10.58-4.3-16.36-4.3-13.17 0-30.79 8.81-30.79 30.547 0 17.29 12.6 28.98 30.88 28.98 5.76 0 8.81-.657 19.76-4.774 2.7-1.024 5.4-1.72 8.34-1.707.86.003 1.12.016 1.12.016V36.583l-.03-7.848zm-4.26 30.837l1.38 3.857 1.38-3.857h1.53v5.388h-.98v-4.348l-1.49 4.348h-.87l-1.5-4.348v4.348h-.99v-5.388h1.54zm-7.04.899v-.899h4.59v.899h-1.76v4.489h-1.07V60.47h-1.76zM40.89 90.646c-2.224 0-3.892-.644-5.457-2.238l1.112-1.069c1.405 1.303 2.662 1.698 4.565 1.698 1.214 0 3.38-.38 3.38-1.96 0-.542-.279-.952-.732-1.244-.571-.366-1.112-.395-2.722-.424l-1.638-.03c-1.697-.029-3.248-.921-3.248-2.795 0-1.594 1.331-2.662 2.721-3.116a6.416 6.416 0 0 1 1.887-.277c1.639 0 3.219.497 4.536 1.492l-.892 1.273c-1.186-.732-2.02-1.142-3.439-1.142-1.068 0-3.204.337-3.204 1.756 0 1.068.981 1.259 1.844 1.259h1.624c1.214 0 2.209.014 3.292.658.979.585 1.536 1.58 1.536 2.721 0 2.648-3.028 3.438-5.165 3.438m28.274-.248V79.482h8.982v1.61h-7.388v2.854h5.028v1.58h-5.028v3.276h7.666v1.596zm14.629 0V79.482h8.983v1.61h-7.388v2.854h5.029v1.58h-5.029v3.276h7.667v1.596zm19.317-9.321v9.32h-1.55v-9.32h-4.18v-1.595h9.86v1.595zm24.9 0h-4.74v3.072h4.74c1.02 0 1.61-.497 1.61-1.551 0-1.082-.56-1.521-1.61-1.521m0 4.682h-4.74v4.638h-1.6V79.482h6.34c1.93 0 3.19 1.157 3.19 3.116 0 1.932-1.28 3.161-3.19 3.161m13.24-4.988c-2.43 0-4.3 1.74-4.3 4.198 0 2.356 2.03 4.082 4.32 4.082 2.34 0 4.28-1.813 4.28-4.183 0-2.401-1.97-4.097-4.3-4.097m0 9.89c-3.31 0-5.86-2.589-5.86-5.881 0-3.204 2.75-5.618 5.88-5.618 3.23 0 5.86 2.53 5.86 5.793 0 3.218-2.72 5.706-5.88 5.706m27.62-9.232l-1.73 3.804h3.46l-1.73-3.804zm4.01 8.969l-1.57-3.556h-4.9l-1.62 3.556h-1.73l4.96-10.901h1.76l4.88 10.901h-1.78zm49.36-9.321h-4.74v3.072h4.74c1.02 0 1.6-.497 1.6-1.551 0-1.082-.55-1.521-1.6-1.521m0 4.682h-4.74v4.638h-1.6V79.482h6.34c1.93 0 3.19 1.157 3.19 3.116 0 1.932-1.28 3.161-3.19 3.161m-26.74-4.988c-2.42 0-4.3 1.74-4.3 4.198 0 2.356 2.04 4.082 4.32 4.082 2.34 0 4.29-1.813 4.29-4.183 0-2.401-1.98-4.097-4.31-4.097m0 9.89c-3.3 0-5.86-2.589-5.86-5.881 0-3.204 2.75-5.618 5.88-5.618 3.23 0 5.87 2.53 5.87 5.793 0 3.218-2.73 5.706-5.89 5.706m35.23-.263h1.56V79.482h-1.56zm8.04 0V79.482h8.98v1.61h-7.39v2.854h5.03v1.58h-5.03v3.276h7.67v1.596zm-177.543 0h-1.639l-2.223-7.726-2.152 7.726h-1.725l-3.263-10.916h1.639l2.458 8.092 2.238-8.092h1.551l2.297 8.092 2.414-8.092h1.668zm94.873-9.321v9.32h-1.55v-9.32h-4.18v-1.595h9.86v1.595zm26.57 0v9.32h-1.55v-9.32h-4.18v-1.595h9.87v1.595z" fill="#CFCBC8" fill-rule="evenodd"/></svg>