<svg xmlns="http://www.w3.org/2000/svg" height="51" width="442" xmlns:xlink="http://www.w3.org/1999/xlink"><defs><path id="a" d="M0 .336h44.214V38.61H0z"/><path id="c" d="M.02.901h49.603v49.165H.02z"/></defs><g fill-rule="evenodd" fill="none"><path d="M-2-3h447v56H-2z"/><g transform="translate(0 6.099)"><mask id="b" fill="#fff"><use xlink:href="#a"/></mask><path fill="#000" mask="url(#b)" d="M31.566 12.27c-.275.164-.605.274-.825.274-.11 0-.165-.11-.165-.22 0-.276.33-.66.88-1.044 1.76-1.321 3.739-2.035 5.774-2.035 3.52 0 6.984 2.365 6.984 4.785 0 1.264-1.044 2.254-2.364 2.254-.826 0-1.43-.33-1.98-1.046-2.09-2.694-3.52-3.684-5.389-3.684-.99 0-2.035.276-2.915.716zm-12.648-.552c0-.714-1.43-2.474-2.035-2.474-.385 0-.935 2.254-.935 3.906 0 .384.165.604.44.604.11 0 .11 0 .385-.054.825-.166 2.145-1.376 2.145-1.982zm-8.524 19.688c-2.365 1.43-2.915 1.76-2.915 2.144 0 .112 0 .112.165.276.66.714 1.54 1.1 2.475 1.1 1.925 0 2.695-.99 2.695-3.354 0-1.1-.056-1.266-.386-1.266-.164 0-.164 0-.769.386l-.605.384-.66.33zm6.049-3.244c-.22.166-.275.33-.275.496 0 .164.055.494.165 1.044.22 1.21.275 1.87.275 2.64 0 3.684-1.925 6.268-4.674 6.268-.77 0-1.265-.33-1.815-1.264-.715-1.32-2.695-2.97-3.52-2.97-.275 0-.275 0-1.485.88-.88.66-1.76 1.044-2.364 1.044C1.21 36.3 0 34.872 0 32.946c0-1.374.605-2.584 1.265-2.584.275 0 .275 0 .77.33.385.274 1.1.494 1.705.494 1.264 0 5.554-1.814 8.139-3.408.879-.55.989-.66.989-.99 0-.056 0-.056-.054-.77-.056-.99-.111-3.136-.111-5.5 0-.55 0-.55.055-1.87 0-.55-.109-.714-.494-.714-.111 0-.165 0-.33.054-.935.11-1.375.11-2.035.11-2.255 0-3.96-.386-5.004-1.1-1.1-.714-1.925-2.088-1.925-3.19 0-.438.165-.714.385-.714.055 0 .22.11.385.33.934 1.21 2.529 1.76 4.839 1.76 2.145 0 3.739-.22 4.124-.496.33-.33.385-.604.495-2.418 0-.11.056-.826.11-1.926a45.39 45.39 0 0 0 .165-3.465c0-2.75-.494-3.904-1.869-4.344-.44-.11-.55-.22-.55-.44 0-.935 1.429-1.76 2.914-1.76 2.145 0 3.63 1.485 3.63 3.63 0 .275 0 .275-.385 2.53-.055.165-.055.33-.055.44 0 1.32 1.54 2.694 3.959 3.465 1.155.384 1.595.88 1.595 1.87 0 1.868-2.2 3.52-6.544 5.004-.33.11-.55.33-.605.714-.11 3.244-.11 3.52-.11 4.29 0 2.364.165 3.19.605 3.19.33 0 .715-.166 4.07-1.76 5.444-2.584 7.533-3.246 10.613-3.246 5.719 0 9.844 3.52 9.844 8.526 0 5.278-4.62 9.238-10.889 9.238-4.454 0-6.819-1.814-6.819-5.226 0-1.924.825-4.288 1.43-4.288.22 0 .33.11.33.384 0 .22-.055.55-.11.936-.11.55-.165 1.21-.165 1.54 0 2.308 1.76 3.794 4.399 3.794 4.29 0 7.479-2.97 7.479-6.874 0-3.63-2.639-5.994-6.654-5.994-3.189 0-5.994 1.21-13.088 5.61-.055 0-.055 0-.055.054z"/></g><path fill="#000" d="M98.116 21.062c3.084 1.926 4.894 4.784 4.894 7.81 0 1.54-.83 2.584-2.14 2.584-1.269 0-1.984-.66-2.314-2.2-.88-4.894-2.255-7.04-5.774-9.018-.605-.22-.936-.496-.936-.716s.331-.384.826-.384c1.374 0 3.629.824 5.444 1.924zM79.088 34.646c0 .164-.055.44-.11.824-.219 1.1-.275 1.76-.275 2.53 0 .714.11 1.374.33 2.254.055.33.055.386.055.606s-.055.33-.165.604c-.22.66-.825.99-1.704.99-3.3 0-6.709-2.418-8.579-6.048a21.115 21.115 0 0 1-2.2-9.404c0-.276 0-.276.055-2.254l.055-1.652.055-1.484c.055-1.65.055-1.76.055-2.09 0-2.474-.55-5.224-1.265-6.598-.165-.33-.275-.606-.275-.77 0-.166.22-.33.44-.33.55 0 1.815.604 2.695 1.32 1.485 1.264 2.42 3.078 2.42 4.838 0 .936 0 .936-.88 5.72-.275 1.264-.386 2.75-.386 4.344 0 3.96.991 6.71 2.915 8.36.66.55 1.265.824 1.87.824 1.155 0 2.089-.88 3.52-3.464.715-1.32 1.045-1.76 1.374-1.76.165 0 .33.164.33.384 0 .276-.054.496-.219 1.486 0 .274-.056.494-.056.494l-.055.276zm54.172-24.583c0 1.21-.16 2.86-.49 4.729-.83 4.51-1.98 15.619-1.98 18.753 0 5.884 2.25 8.414 7.48 8.414 4.95 0 11.77-3.629 14.96-7.918.38-.55.55-.661.77-.661.27 0 .38.111.38.385 0 1.595-3.19 5.555-6.38 7.974-3.3 2.474-6.76 3.684-10.5 3.684-6.55 0-9.9-3.794-9.9-11.217 0-.771.05-2.036.27-4.951.55-6.928.88-12.922.88-15.507 0-4.124-.44-5.554-2.09-6.544-.49-.275-.66-.495-.66-.826 0-.549.55-.879 1.54-.879 3.25 0 5.72 1.98 5.72 4.564m60.83-1.373c-2.8-1.156-4.73-1.76-5.77-1.76-.66 0-.99.164-.99.493 0 .495 1.15 1.651 4.4 4.29 1.98 1.65 1.98 1.65 2.31 1.65.49 0 1.81-.935 2.31-1.705.27-.44.33-.659.33-1.1-.17-.715-.55-1.045-2.59-1.869m-12.76 12.483c-2.53 0-4.51-.99-5.72-2.86-.55-.824-.88-1.704-.88-2.255 0-.329.11-.55.39-.55.16 0 .38.111.71.495 1.16 1.265 3.58 2.09 5.94 2.09 3.19 0 6.55-1.045 9.3-2.804.11-.11.16-.22.16-.385 0-.606-2.25-2.365-6.54-5.17-1.16-.823-1.76-1.703-1.76-2.748 0-1.21 1.04-2.035 2.58-2.035.99 0 1.71.22 3.58 1.1 2.25 1.045 7.04 2.2 8.85 2.145 1.49 0 1.65.055 2.09.165.72.22 1.21.988 1.21 1.924 0 .99-.6 1.98-1.92 3.08-1.27 1.044-2.2 1.76-2.64 2.034-.28.165-.39.274-.39.44 0 .11.06.22.17.384 6.05 6.985 8.46 11.11 8.46 14.628 0 1.266-.27 2.2-.93 3.026-.66.77-1.76 1.43-2.53 1.43-.66 0-1.21-.33-2.03-1.1-2.75-2.696-7.59-4.675-11.5-4.675-4.18 0-7.75 2.804-7.75 5.994 0 1.814 1.15 3.52 3.13 4.62 1.82 1.044 4.46 1.594 7.7 1.594 1.27 0 1.82-.055 3.25-.385 1.54-.33 2.09-.439 2.53-.439 1.43 0 2.36.77 2.36 1.98 0 1.594-2.53 2.474-7.15 2.474-8.58 0-14.08-3.63-14.08-9.24 0-4.398 4.24-7.643 10.01-7.643 2.37 0 4.95.44 8.14 1.43 1.38.44 2.42.66 2.97.66 1.05 0 1.49-.44 1.49-1.486 0-1.704-.88-4.013-2.53-6.598-1.98-3.135-3.74-5.169-4.35-5.169-.11 0-.27 0-.38.054-5.67 2.86-8.64 3.795-11.94 3.795m65.4-6.654c-.11-2.914-.77-4.344-1.93-4.344-1.81 0-5.39 1.704-7.48 3.52-3.96 3.518-6.38 8.852-6.38 14.132 0 4.564 1.54 7.92 3.58 7.92 1.59 0 3.63-1.376 5.88-3.96 4.07-4.73 6.38-10.45 6.38-15.784l-.05-1.484zm14.57-.494c3.19 3.3 5.11 7.974 5.11 12.592 0 4.4-1.76 8.634-5.05 12.098-3.63 3.74-9.63 6.38-14.58 6.38-.55 0-.82-.166-.82-.44 0-.276 0-.276 3.19-1.264 2.09-.66 5-2.366 6.98-4.07 3.85-3.3 5.89-7.698 5.89-12.814 0-3.354-.94-6.818-2.7-9.734-1.87-3.19-4.67-5.278-8.19-6.214-.99-.274-2.42-.494-3.03-.494-.55 0-.77.164-.77.55 0 .22.06.33.28.824.99 2.144 1.43 4.29 1.43 6.93 0 6.654-3.36 13.858-8.8 18.698-2.26 2.09-4.29 3.134-5.83 3.134-3.8 0-6.82-5.17-6.82-11.66 0-11.052 8.85-20.236 19.58-20.236 5.11 0 10.67 2.254 14.13 5.72zm50.82-8.084c-.6 4.728-1.37 6.928-3.41 9.678-2.47 3.409-7.09 6.324-10.01 6.324-.38 0-.66-.11-.66-.33s.28-.495.94-.77c5.99-3.299 8.96-7.919 9.51-14.903h-4.07c-.55 3.409-2.25 5.829-4.07 5.829-1.04 0-1.76-.715-1.76-1.649 0-.606.22-1.045.77-1.65 2.53-2.86 2.92-3.575 3.47-7.04.11-1.045.16-1.099.38-1.21.61.221 1.32 2.366 1.32 4.18h21.07l.22-.274.32-.33.45-.496c.71-.769.82-.88 1.26-.88.38 0 .71.166 1.38.605l.27.275.88.715c2.14 1.76 2.8 2.53 2.8 3.025 0 .605-.6.934-1.98.934-1.81 0-2.47.221-5 1.816-.49.33-.77.439-.88.439-.16 0-.33-.165-.33-.385 0-.219.17-.715.55-1.429.39-.77.77-1.65 1.05-2.475h-6.6v5.554c.11 5.224.16 5.335 4.23 5.389h.33c2.86-.11 3.3-.384 3.91-2.529v-.165l.05-.11c0-.11.11-.55.27-1.54.28-1.485.39-1.76.72-1.76s.55.44.77 1.54c.11.55.33 1.21.44 1.595.06.055.06.165.11.33.33 1.099.66 1.705 1.04 2.144.33.385.44.55.44.88 0 .99-1.15 1.816-2.91 2.2-.93.165-2.8.275-4.73.275-7.42 0-8.08-.605-8.08-7.589V5.939h-4.46zm14.19 22.216c1.76-2.86 2.2-3.464 2.64-3.464s1.37.715 3.35 2.475c.83.714 1.05 1.044 1.05 1.54 0 .548-.5.878-1.21.878h-14.79c3.08 3.85 8.14 7.81 15.06 11.824.61.385.77.551.77.77 0 .165-.11.275-.49.55-1.21.88-1.21.88-1.54 1.1-.22.11-.22.165-.38.275-.34.274-.61.385-.78.385-.71 0-3.29-1.925-5.82-4.289-3.63-3.465-6.71-7.315-8.53-10.615-.05.606-.05 1.541-.05 2.585v.55c0 2.365.05 4.015.22 12.208.05 1.705.05 2.585.05 2.641 0 1.374-1.04 2.53-2.31 2.53-1.21 0-1.65-.716-1.65-2.64 0-.496 0-1.43.06-2.75.05-2.97.11-7.479.16-13.364-3.85 4.84-6.32 7.315-9.84 9.9-2.92 2.09-6 3.63-7.37 3.63-.33 0-.5-.11-.5-.276 0-.275.33-.605 1.1-1.045 5.72-4.29 9.79-8.579 13.26-13.969h-6.05c-1.32 0-2.2.056-3.69.111-.49.055-.99.055-1.26.055-.5 0-.61-.055-.88-.605-.22-.385-.39-.99-.39-1.265 0-.055 0-.11.06-.165.05-.055.05-.055.16-.055.17 0 .55.055.94.11 1.92.275 4.01.385 6.38.385h8.08l-.05-.44v-.715l-.06-.66v-.825l-.05-.715c-.06-.274-.06-.33-.17-1.484-.05-.936-.11-1.32-.11-1.54 0-.715.17-.99.66-.99.5 0 2.42.385 3.36.66 1.37.385 1.87.66 1.87 1.045 0 .384-.44.825-1.93 1.705v3.959h10.67zM293.09 5.004c1.65 1.374 2.7 2.914 2.7 3.96 0 .99-.66 1.704-1.54 1.704-.5 0-.99-.219-1.38-.605-.22-.22-.22-.22-1.86-3.079-.39-.606-1.6-2.255-2.37-3.08-.6-.77-.88-1.1-.88-1.319 0-.11.11-.166.28-.166.77-.054 3.62 1.43 5.05 2.585zm-4.61 40.86c.05-1.32.05-2.42.05-2.53 0-3.629-.93-6.764-3.02-9.954-.39-.549-.44-.714-.44-.825 0-.109.11-.165.27-.165.11 0 .33.056.55.111.39.165.77.22 1.05.22.82 0 .99-.166 2.36-2.42 2.2-3.575 2.64-4.29 4.89-8.359.83-1.595.83-1.595 1.05-1.595s.33.165.33.44c0 .55-.61 2.365-1.49 4.62-.22.385-.22.44-1.15 2.97-.22.55-.22.55-.61 1.43-1.21 3.024-1.59 4.563-1.59 6.213 0 .825.05 1.154.5 2.31.93 2.31 1.59 5.39 1.59 7.15 0 1.98-1.05 3.354-2.64 3.354-1.16 0-1.7-.77-1.7-2.475v-.495zm1.26-28.817c1.43 1.265 2.25 2.64 2.25 3.575 0 .99-.66 1.65-1.54 1.65-.49 0-1.1-.275-1.48-.715-.22-.22-.22-.22-1.87-3.08-.49-.715-1.65-2.144-2.2-2.749-.6-.605-.88-.99-.88-1.155s.17-.276.39-.276c1.15 0 3.79 1.375 5.33 2.75z"/><g transform="translate(350 -.901)"><mask id="d" fill="#fff"><use xlink:href="#c"/></mask><path fill="#000" mask="url(#d)" d="M44.454 43.796c.055-.935.055-1.814.055-3.795v-1.704c0-.825-.055-1.815-.22-2.86-.055-.44-.109-.88-.109-1.155 0-.549.219-.77.604-.77.33 0 1.98.33 2.915.551 1.209.274 1.924.714 1.924 1.045 0 .384-.44.769-1.815 1.594 0 5.224 0 6.599.055 9.623v.606c0 1.484-.824 2.474-2.089 2.474-.88 0-1.43-.714-1.43-1.759v-.496c.055-.439.055-1.099.055-1.924H27.517c0 1.045 0 2.035.054 2.309v.385c0 1.155-.989 2.146-2.09 2.146-.934 0-1.484-.716-1.484-1.816v-.109c0-.221 0-.771.055-1.595v-1.87l.054-2.2c.056-3.629.056-3.629.056-4.124 0-1.21-.056-2.145-.165-3.19-.056-.495-.11-.934-.11-1.21 0-.55.219-.769.66-.769.275 0 .495.054.934.109.22.056.441.11.715.165 2.09.441 3.08.825 3.08 1.32 0 .385-.44.77-1.815 1.595v2.529c0 2.31 0 3.685.056 4.895h6.543V29.113h-5.059c.056.329.056.715.056 1.155v.165c0 1.155-.991 2.144-2.146 2.144-.88 0-1.43-.715-1.43-1.814v-.111c0-.219 0-.66.056-1.375.055-2.034.164-5.773.164-7.368 0-1.32-.055-2.035-.22-3.19-.054-.494-.109-.935-.109-1.154 0-.55.165-.77.604-.77.276 0 .441 0 .991.164l.715.11c2.144.441 3.079.826 3.079 1.321 0 .385-.495.824-1.815 1.594l.055 5.004v2.695h5.059v-9.404c0-.66-.054-1.155-.165-2.144-.054-.33-.11-.771-.11-.936 0-.494.221-.659.771-.659 1.649 0 4.784 1.045 4.784 1.595 0 .385-.495.769-1.87 1.595v9.953h5.444v-.605c.056-1.649.11-3.849.11-5.059 0-1.265-.054-2.145-.219-3.3-.056-.44-.111-.935-.111-1.154 0-.55.22-.77.66-.77.22 0 .44.055 1.155.164l.44.11c2.31.441 3.19.826 3.19 1.321 0 .385-.44.769-1.815 1.594 0 5.554 0 7.259.055 8.854v.604c0 1.431-.825 2.42-2.09 2.42-.88 0-1.43-.714-1.43-1.87v-.879H37.47v14.683h6.984zM22.732 4.971V9.04c-.055.771-.055 1.431-.055 1.87v1.265h20.732V4.971H22.732zm-.055 9.9v2.088c0 8.8-.33 12.21-1.539 17.213-.826 3.63-2.255 7.26-3.906 10.12-1.649 2.97-3.904 5.498-4.893 5.498-.165 0-.276-.11-.276-.33 0-.274.111-.495.495-1.1 4.785-7.588 6.764-17.323 6.49-31.84v-5.06l.054-2.64V7.061a34.11 34.11 0 0 0-.165-3.52c-.054-.495-.11-.934-.11-1.21 0-.439.165-.659.495-.659.606 0 2.915.935 4.619 1.869H42.64c.109-.055.109-.109.495-.439 1.045-.991 1.264-1.101 1.649-1.101.715 0 3.685 2.476 3.685 3.08 0 .275-.33.55-1.156.99-.33.165-.495.275-.659.385 0 2.255.055 4.29.11 5.004l.054 1.54c0 1.375-.824 2.2-2.144 2.2-.824 0-1.265-.44-1.265-1.32v-.33H22.677v1.32zM3.705 32.852c-.495.88-.881 1.264-1.266 1.264-.549-.11-1.099-.715-1.484-1.814C.02 30.048.02 30.048.02 29.938c0-.385.22-.44 1.43-.55 2.09-.22 3.685-.44 5.334-.66V22.46l.055-5.939c-1.374 0-2.749.054-3.905.11-.384.055-.825.055-.934.055-.606 0-.771-.055-.99-.44-.44-.825-.55-1.1-.55-1.375 0-.11.055-.165.165-.165.165 0 .439 0 .66.055 1.484.22 3.079.33 5.224.33h.33L6.784 4.147c0-.661-.055-1.43-.165-2.146-.055-.274-.055-.55-.055-.715 0-.274.11-.385.33-.385.55 0 2.035.22 3.245.55 1.649.33 2.309.715 2.309 1.156 0 .495-.604.879-2.31 1.594v10.834h1.156c.439-.605.604-.88 1.154-1.595 1.045-1.485 1.1-1.54 1.595-1.54s1.54.77 3.135 2.365l.275.22c.439.44.659.77.659 1.155 0 .495-.494.88-1.154.88h-6.82v11.714l1.43-.22c.495-.056.99-.166 1.375-.22l2.09-.33 1.265-.22c.33-.055.33-.055.55-.055.275.054.384.165.384.33 0 .714-2.144 1.704-7.093 3.354 0 6.764 0 8.36.054 14.353.165 2.585-1.374 4.234-4.399 4.62-.494 0-.824-.166-1.21-.55-1.1-1.046-1.595-1.43-3.079-2.2-.825-.44-1.155-.66-1.155-.88 0-.165.165-.386.33-.386.275 0 .66 0 1.045.056.879.11 2.474.165 3.41.165 1.374 0 1.429-.165 1.539-1.98.055-.11.055-2.86.055-5.004 0-.66 0-1.65.055-5.39v-1.76l-1.705.441-1.319.33-.055.165z"/></g><path fill="#000" d="M441.92 26.287c0 7.974-3.57 15.343-9.68 19.632-2.14 1.595-4.51 2.639-5.72 2.639-.33 0-.49-.11-.49-.33 0-.219.33-.549 1.1-.934 2.69-1.43 5.61-4.4 7.37-7.369 2.14-3.74 3.35-8.799 3.35-13.803 0-7.754-2.75-12.979-6.76-12.979-2.04 0-4.13 1.485-5.39 3.85-.99 1.815-1.43 4.069-1.43 7.204 0 2.64.38 4.619 1.37 6.929.28.715.39 1.099.39 1.54 0 1.045-.66 1.76-1.65 1.76-2.15 0-3.47-3.355-3.47-8.744 0-3.52.39-5.39 2.64-12.814.72-2.419.99-3.85.99-5.664 0-1.43-.44-2.694-1.21-3.685-.27-.33-.38-.549-.38-.714 0-.44.27-.605.82-.605 2.59 0 4.68 1.87 4.68 4.07 0 1.54-.61 3.793-1.93 6.873-.05.22-.11.331-.11.385 0 .165.06.276.22.276.11 0 .17 0 .22-.111 1.76-1.54 3.41-2.2 5.39-2.2 5.61 0 9.68 6.27 9.68 14.794"/></g></svg>