<svg xmlns="http://www.w3.org/2000/svg" height="45" width="184" xmlns:xlink="http://www.w3.org/1999/xlink"><defs><path id="a" d="M.504.291h36.405v38.494H.504z"/><path id="c" d="M.631.932h15.067V16H.631z"/></defs><g fill-rule="evenodd" fill="none"><path d="M-4-10h190v56H-4z"/><path fill="#000" d="M38.825 17.707c.77-1.21 1.209-1.814 1.484-2.199.991-1.651 1.485-2.09 2.145-2.09.605 0 .99.22 2.805 1.925l.66.604.66.606c.824.715 1.1 1.154 1.1 1.649 0 .66-.606 1.045-1.541 1.045H6.874c-1.32 0-2.97.055-4.18.165l-1.21.055c-.659 0-.769-.055-1.045-.659C.165 18.312 0 17.763 0 17.487c0-.054 0-.11.054-.165.056-.054.056-.054.166-.054l.88.054c2.584.276 4.62.385 8.03.385h29.695zm41.802 17.378c.11-.165.386-.22 1.21-.165 2.475.055 8.689-1.87 11.438-3.52 4.235-2.529 6.379-6.159 6.379-10.669 0-5.773-3.739-9.842-9.073-9.842-3.739 0-7.589 1.264-13.639 4.563-5.279 2.861-6.874 3.465-8.743 3.465-1.65 0-2.915-.604-3.74-1.925-.55-.824-.989-2.034-.989-2.749 0-.551.22-.825.55-.825.165 0 .33.055.714.22 1.21.495 2.145.66 3.41.66 2.75 0 4.95-.55 10.944-2.694 6.214-2.201 8.084-2.64 11.108-2.64 3.685 0 6.929 1.045 9.294 3.024 2.86 2.365 4.51 5.775 4.51 9.239 0 3.96-2.04 7.864-5.5 10.558-3.465 2.696-8.853 4.235-14.903 4.235-1.815 0-3.025-.275-3.079-.715l.109-.22z"/><g transform="translate(120 -.291)"><mask id="b" fill="#fff"><use xlink:href="#a"/></mask><path fill="#000" mask="url(#b)" d="M18.927 6.01c1.1.495 2.2.715 4.345.715 2.309 0 4.729-.22 7.093-.605 1.21-.22 1.595-.275 2.145-.275 1.925 0 3.024.66 3.024 1.76 0 .66-.439 1.264-1.209 1.759-.935.55-2.695.826-5.884.826-6.16 0-10.174-1.54-10.174-3.905 0-.22.11-.44.275-.44.055 0 .22.056.385.165zm-1.814 21.777c.714 2.695 3.519 3.85 9.238 3.85 2.365 0 4.564-.056 6.984-.22.385-.055.77-.055.99-.055 1.595 0 2.584.66 2.584 1.759 0 1.925-1.924 2.53-7.808 2.53-4.895 0-7.645-.495-9.789-1.76-2.034-1.21-3.244-3.08-3.244-5.17 0-.88.219-1.65.549-1.65.22 0 .385.22.496.716zM1.77 1.446C1.494.95 1.494.896 1.494.73c0-.275.22-.44.55-.44.495 0 1.32.44 2.145 1.155 1.87 1.54 2.75 3.41 2.75 5.884 0 1.539-.165 2.365-1.156 5.28-1.869 5.609-2.694 9.623-2.694 12.977 0 2.915.441 4.565 1.155 4.565.605 0 .99-.495 2.64-3.245 1.21-2.035 1.43-2.365 1.76-2.365.22 0 .385.221.385.551 0 .439-.165 1.209-.441 2.09-.55 1.814-1.045 4.398-1.045 5.499 0 1.484.165 2.64.606 3.794.054.165.109.385.109.55a1.77 1.77 0 0 1-1.76 1.759c-.494 0-.934-.165-1.484-.604C1.99 35.926.504 32.022.504 26.577c0-2.859.386-6.433 1.21-10.669.715-3.628 1.045-6.268 1.045-8.633s-.33-4.454-.935-5.61V1.61l-.054-.165z"/></g><g transform="translate(168 28.709)"><mask id="d" fill="#fff"><use xlink:href="#c"/></mask><path fill="#000" mask="url(#d)" d="M2.61 8.411c0 3.079 2.53 5.609 5.554 5.609a5.538 5.538 0 0 0 5.554-5.554c0-3.025-2.529-5.555-5.554-5.555-3.025 0-5.554 2.53-5.554 5.5m13.088.055c0 4.179-3.355 7.534-7.478 7.534C3.986 16 .632 12.7.632 8.466A7.51 7.51 0 0 1 8.165.932a7.51 7.51 0 0 1 7.533 7.534"/></g></g></svg>