<svg xmlns="http://www.w3.org/2000/svg" height="50" width="183" xmlns:xlink="http://www.w3.org/1999/xlink"><defs><path id="a" d="M.105.837h44.599V50H.105z"/></defs><g fill-rule="evenodd" fill="none"><path d="M-3-2h190v56H-3z"/><path fill="#000" d="M31.224 25.109l.6-.874c1.147-1.64 1.475-1.968 2.13-1.968.654 0 1.528.602 4.093 2.951.983.82 1.147 1.094 1.147 1.585 0 .546-.546.93-1.474.93H15.175a50.89 50.89 0 0 0-4.149.164l-1.145.053c-.656 0-.82-.053-1.147-.656-.273-.491-.437-.874-.437-1.146 0-.22.11-.274.328-.274l.819.054c2.184.328 4.75.438 7.97.438h12.937l.873-1.257zM33.79 9.098c.818-1.148 1.092-1.585 1.473-2.131C36.355 5.382 36.738 5 37.392 5c.71 0 1.201.382 4.095 2.95.927.82 1.145 1.093 1.145 1.585 0 .547-.546.875-1.473.875H11.026c-.818 0-2.892.108-4.093.218l-1.31.054c-.655 0-.71-.054-1.093-.764-.217-.438-.38-.82-.38-1.039 0-.109 0-.164.108-.218.109-.055.109-.055.219-.055l.927.055c1.856.273 5.132.437 7.916.437h20.47zm4.367 34.262c.764-1.092.873-1.256 1.474-2.13 1.037-1.585 1.474-1.968 2.128-1.968.655 0 1.419.547 4.04 2.952.983.818 1.201 1.092 1.201 1.638 0 .547-.546.875-1.474.875H6.879c-.82 0-2.349.054-3.93.218L1.637 45c-.71 0-.874-.055-1.201-.71C.164 43.852 0 43.415 0 43.196c0-.218.11-.327.328-.327s.546 0 .928.055c1.801.272 5.132.436 7.915.436h28.986z"/><g transform="translate(61)"><mask id="b" fill="#fff"><use xlink:href="#a"/></mask><path fill="#000" mask="url(#b)" d="M39.205 35.317v-8.249H28.537v8.249h10.668zM28.537 17.829v7.754h10.668l-.109-7.754H28.537zm-3.63 0h-8.964c-.11.11-.11.11-.11.22-.055.275-.109 2.695-.165 6.214v1.32h9.239v-7.754zm-9.239 9.239c-.109 5.499-.165 6.049-.659 8.249h9.898v-8.249h-9.239zm1.98-17.982a163.62 163.62 0 0 1-4.564 5.773c1.1.33 2.475.936 3.464 1.485h9.954c1.649-2.31 3.024-4.674 4.345-7.258H17.648zm-3.025 27.77c-1.814 5.06-3.849 8.029-7.479 10.779C5.495 48.955 3.46 50 2.635 50c-.22 0-.33-.055-.33-.165 0-.165.275-.496.935-.991 6.214-5.114 8.964-11.932 8.689-21.611v-3.245l.054-4.73c0-.33-.054-1.209-.219-2.914C6.54 22.008 1.976 25.803.381 25.803c-.165 0-.276-.11-.276-.275 0-.22.276-.55.935-1.155 5.39-5.609 9.349-10.888 14.3-19.028.55-.989 1.263-2.474 1.594-3.408.33-.88.494-1.1.934-1.1.88 0 3.74 1.045 4.95 1.814.604.33.824.66.824.99-.11.22-.384.44-1.044.715-.77.22-1.43.385-1.98.494-.99 1.486-1.21 1.816-1.87 2.75h11.658c.055 0 .88-.769 1.54-1.484.33-.22.495-.276.715-.276.55 0 1.98 1.045 3.795 2.805.55.55.77.825.824.99.056.66-.439.99-1.925 1.485l-.714.219c-2.86 2.64-4.4 4.015-5.61 5.005h9.294c.22-.275.33-.384.771-.77l.164-.22.55-.55c.166-.219.495-.384.715-.384.55 0 1.43.66 3.74 2.859l.22.165c.164.22.22.33.22.495 0 .33-.33.605-1.266 1.1-.439.219-.549.275-.714.384v.991l.054 4.674c.056 9.734.111 15.893.165 18.477.056 2.42-.274 3.63-1.374 4.565-.935.879-2.915 1.705-4.179 1.759-.44 0-.826-.164-1.21-.55-1.156-1.264-1.76-1.704-3.96-2.804-1.044-.55-1.43-.77-1.43-.989 0-.166.165-.276.495-.276.385 0 1.1.055 1.815.165 1.705.165 3.3.276 4.564.276h.44c1.045 0 1.1-.165 1.1-2.201v-6.654H14.623z"/></g><path fill="#000" d="M167 6.84c0 .88-.78 1.704-1.61 1.704-.45 0-.83-.22-1.17-.66-1.55-2.2-2.61-3.3-4.28-4.675-.55-.439-.83-.715-.83-.88 0-.219.28-.329.89-.329 3.56 0 7 2.364 7 4.84zm-5.56 3.574c0 .935-.77 1.761-1.66 1.761-.5 0-.84-.22-1.17-.771-1.17-1.924-2.44-3.464-4-4.84-.55-.44-.78-.714-.78-.88 0-.22.23-.33.67-.33 3.44 0 6.94 2.586 6.94 5.06zm-18.05.495c4.55-1.155 5.83-1.375 7.78-1.375 2.44 0 4.11.991 4.11 2.476 0 .99-.89 1.649-2.17 1.649-.17 0-.17 0-1.39-.165-.61-.054-1.39-.109-2-.109-9.28 0-15.28 7.314-15.28 18.646 0 6.875 2.67 9.954 8.56 9.954.5 0 .5 0 1.78-.11h.27c1.45 0 2.56.824 2.56 1.981 0 1.484-1.44 2.144-4.5 2.144-8.17 0-11.94-3.96-11.94-12.54 0-5.665 1.61-10.836 4.61-14.685l.11-.11a15.826 15.826 0 0 1 3.22-3.411c.39-.329.56-.494.56-.659s-.17-.22-.39-.22c-.34 0-3 .77-4.67 1.374-1 .33-1.61.606-3.11 1.321-4.78 2.145-5.94 2.585-7.06 2.585-1.83 0-3.44-1.981-3.44-4.18 0-.66.22-1.1.61-1.1.11 0 .33.055.61.22.95.439 1.78.659 2.89.659 1.78 0 3.61-.385 8.11-1.704 3.45-.99 4.11-1.155 7.67-2.035.61-.111 1.22-.276 1.28-.331l1.22-.275zm32.78 28.394c3.97 1.811 6.83 5.15 6.83 7.922 0 1.53-1.05 2.775-2.31 2.775-.94 0-1.6-.51-2.37-1.756-2.48-4.244-3.19-5.149-5.94-7.979-.94-.905-1.38-1.472-1.38-1.756 0-.282.33-.509.72-.509.93 0 2.86.567 4.45 1.303"/></g></svg>