<svg xmlns="http://www.w3.org/2000/svg" height="48" width="288"><g fill-rule="evenodd" fill="none"><path d="M-3-5h294v56H-3z"/><path fill="#000" d="M9.289 20.982c.109-.492.218-1.093.218-1.475 0-.656-.218-.929-.6-.984-.383-.054-1.695.492-2.35.984-.547.382-.82.929-.82 1.694 0 1.803.984 4.426 1.639 4.426.711 0 1.038-.766 1.585-3.443l.109-.437.219-.765zm1.312-10c.054-5.026-.11-5.682-1.585-7.212-.219-.219-.328-.328-.328-.492 0-.492.819-.819 2.076-.819 2.514 0 4.153 1.64 4.153 4.152 0 .929-.164 2.022-.601 3.934-.273 1.421-.601 3.388-.601 3.935 0 .273.054.382.383.492 1.202.437 1.639.928 1.639 1.857 0 .875-.219 1.421-1.531 3.334-1.529 2.295-2.021 3.223-2.021 3.715 0 .273.164.437.382.437.11 0 .274-.054.601-.218 5.683-4.208 9.618-5.847 13.989-5.847 6.994 0 11.912 4.59 11.912 11.092 0 4.098-1.913 7.705-5.519 10.383-3.279 2.349-8.197 4.097-11.694 4.097-.983 0-1.529-.164-1.529-.437s.273-.437.874-.491c3.114-.383 7.868-2.842 10.054-5.192 1.967-2.131 3.06-5.081 3.06-8.305 0-5.683-3.17-9.234-8.306-9.234-1.475 0-3.06.273-4.699.874-3.661 1.257-5.956 2.896-10.218 7.157-.491.274-.71 1.421-.71 3.334 0 2.513.382 4.645 1.311 7.978.437 1.366.492 1.693.492 2.24 0 1.148-.82 2.022-1.967 2.022-1.093 0-1.639-.601-1.967-2.241-.438-2.295-.82-5.518-.875-7.212-.054-.546-.218-.984-.437-.984-.49 0-.983.655-3.114 4.098-.71 1.202-1.366 1.694-2.295 1.694-.874 0-1.53-.655-1.53-1.53 0-1.202.218-1.529 4.371-6.447 1.75-2.077 2.186-2.733 2.186-3.169 0-.219-.055-.438-.164-.657-.82-2.404-1.312-3.66-2.24-5.409-.438-.765-.547-1.147-.547-1.694 0-1.366.601-1.967 3.552-3.551.765-.383 2.349-1.203 2.513-1.312.492-.273.656-.601.656-1.311.109-.82.164-1.694.274-3.006v-.055zm96.119-7.266c0 .819-.66 1.584-1.42 1.584-.44 0-.66-.109-1.04-.437-2.08-1.803-3.28-2.568-5.25-3.497-.65-.273-.93-.491-.93-.655 0-.383 1.32-.711 2.9-.711 3.01 0 5.74 1.749 5.74 3.716zm-3.77 6.12c0 .874-.71 1.693-1.53 1.693-.39 0-.71-.163-1.04-.491-2.24-2.295-2.79-2.732-4.809-3.934-.656-.383-.929-.601-.929-.765 0-.383.71-.547 1.967-.547 3.391 0 6.341 1.913 6.341 4.044zm1.64 12.84c0 2.842-.99 4.372-2.74 4.372-.71 0-1.09-.273-1.53-1.039-.38-.819-1.64-1.474-3.492-1.748-.765-.109-1.093-.218-1.093-.382 0-.328.382-.492 1.202-.547.823-.054 1.913-.382 2.353-.71.49-.328.65-.82.65-1.749 0-3.114-1.91-5.191-5.516-5.955-.93-.219-1.039-.274-1.039-.547s.383-.383 1.257-.383c6.068 0 9.948 3.443 9.948 8.688zm-27.597-5.737c1.202-.327 3.278-.546 4.808-.546 4.098 0 6.338 3.005 6.338 8.524 0 4.59-1.857 9.89-4.753 13.551-2.295 2.896-4.59 4.153-7.705 4.153-1.748 0-2.185-.274-3.114-1.803-.547-.93-1.038-1.64-1.64-2.35-.71-.875-.874-1.092-.874-1.366 0-.219.164-.437.328-.437.219 0 .765.218 1.312.547 1.584.983 3.005 1.474 4.316 1.474 1.257 0 2.896-.819 3.825-1.967 3.006-3.004 5.027-8.305 5.027-13.277 0-3.497-1.257-5.41-3.552-5.41-1.092 0-2.568.273-4.371.71-.164.055-.328.11-.383.11-.71.164-.874.273-1.092.928-1.967 5.738-5.355 13.005-7.923 17.049-1.968 3.059-3.552 4.426-5.082 4.426-.874 0-1.694-.82-1.694-1.694 0-.765.437-1.421 2.241-3.333 1.912-2.077 3.551-4.317 5.191-7.158 1.966-3.388 3.824-7.541 3.824-8.415a.374.374 0 0 0-.382-.383c-.328 0-2.514.765-5.246 1.749-1.803.71-2.076.765-2.786.765-1.968 0-3.17-1.366-3.17-3.607 0-1.038.274-1.748.656-1.748.164 0 .382.109.656.328 1.038.765 1.912 1.038 3.442 1.038 2.404 0 7.213-.71 7.705-1.147.71-.601 2.513-7.596 2.513-9.618 0-1.42-.437-2.295-1.585-3.06-.437-.327-.601-.546-.601-.764 0-.656.984-1.148 2.241-1.148 2.513 0 4.481 1.749 4.481 3.989 0 .82-.164 1.312-.93 3.278-.327.875-.983 2.623-1.311 3.443-.273.765-.437 1.257-.547 1.421-.491 1.311-.491 1.311-.491 1.529 0 .164.109.219.219.219h.109zm50.437 21.147c0 2.02 2.35 3.496 5.57 3.496 3.83 0 5.63-1.64 5.63-5.082 0-.982-.05-1.202-.22-1.366-.44-.326-2.62-.654-4.26-.654-4.04 0-6.72 1.42-6.72 3.606zm14.04-22.84c-.16 1.694-.27 3.988-.27 5.136 0 .656.11.82.54.82.66 0 2.35-.492 3.28-.93 1.15-.546 1.48-.928 1.48-1.53 0-.71-.27-1.202-1.53-2.786-.71-.874-.88-1.094-.88-1.258 0-.108.11-.164.22-.164.22 0 .77.328 1.81 1.038 2.18 1.476 2.67 1.696 4.09 1.804 1.53.218 2.24.656 2.24 1.476 0 1.802-4.15 3.988-10.38 5.464-.49.11-.71.328-.71.764 0 1.64.38 5.138.82 7.05.06.546.39.874 1.04.982 7.21 1.75 11.64 4.154 11.64 6.286 0 .982-.98 2.02-2.02 2.02-.66 0-1.2-.272-2.08-.982-1.47-1.312-2.62-2.132-3.99-2.898-1.31-.654-3-1.31-3.49-1.31-.55 0-.61.108-.61.928 0 4.864-3.16 7.65-8.85 7.65-5.24 0-9.07-2.622-9.07-6.174 0-3.716 4.15-6.394 9.95-6.394 1.31 0 2.02 0 3.17.11h.21c.44 0 .61-.164.61-.602v-.382c-.11-1.038-.28-3.88-.28-4.918 0-1.146-.05-1.366-.65-1.42-2.03.274-4.1.438-5.19.438-4.76 0-8.26-1.968-8.26-4.59 0-.384.11-.656.33-.656.11 0 .22.108.39.328.98 1.53 3.05 2.186 6.55 2.186 2.35 0 6.01-.438 6.5-.82.17-.11.22-.274.22-.82 0-.11 0-.438.06-.984 0-.382.05-.546.11-2.404l.05-1.256c.06-.492.06-.876.06-1.038 0-.438-.22-.712-.55-.712-.77.056-1.48.056-2.08.056-3.38 0-6.94-1.914-6.94-3.772 0-.218.11-.326.28-.326.11 0 .27.108.54.272 1.1.766 2.63 1.148 4.76 1.148 1.64 0 3.71-.218 4.04-.438.11-.108.22-.326.22-.818v-.492l.11-1.366c.05-.656.05-1.476.05-1.968 0-2.13-.49-3.224-1.58-3.66-.38-.165-.49-.274-.49-.438 0-.602 1.42-1.312 2.57-1.312 1.91 0 3.33 1.476 3.33 3.498 0 .6-.06.928-.22 1.748-.27 1.094-.6 3.17-.6 3.552 0 .274.16.492.49.492s.93-.274 1.86-.766c1.04-.546 1.42-.71 1.91-.71.93 0 1.64.656 1.64 1.53 0 .984-1.58 1.858-5.57 3.116-.61.164-.77.328-.88.982v.22zm37.32 22.84c0 2.02 2.35 3.496 5.58 3.496 3.82 0 5.62-1.64 5.62-5.082 0-.982-.05-1.202-.21-1.366-.44-.326-2.63-.654-4.27-.654-4.04 0-6.72 1.42-6.72 3.606zm14.05-22.84c-.17 1.694-.28 3.988-.28 5.136 0 .656.11.82.55.82.66 0 2.35-.492 3.28-.93 1.15-.546 1.47-.928 1.47-1.53 0-.71-.27-1.202-1.53-2.786-.71-.874-.87-1.094-.87-1.258 0-.108.11-.164.22-.164.22 0 .76.328 1.8 1.038 2.19 1.476 2.68 1.696 4.1 1.804 1.53.218 2.24.656 2.24 1.476 0 1.802-4.15 3.988-10.38 5.464-.49.11-.71.328-.71.764 0 1.64.38 5.138.82 7.05.05.546.38.874 1.03.982 7.22 1.75 11.64 4.154 11.64 6.286 0 .982-.98 2.02-2.02 2.02-.65 0-1.2-.272-2.07-.982-1.48-1.312-2.63-2.132-3.99-2.898-1.32-.654-3.01-1.31-3.5-1.31-.55 0-.6.108-.6.928 0 4.864-3.17 7.65-8.85 7.65-5.25 0-9.07-2.622-9.07-6.174 0-3.716 4.15-6.394 9.94-6.394 1.31 0 2.02 0 3.17.11h.22c.44 0 .6-.164.6-.602v-.382c-.11-1.038-.27-3.88-.27-4.918 0-1.146-.06-1.366-.66-1.42-2.02.274-4.1.438-5.19.438-4.75 0-8.25-1.968-8.25-4.59 0-.384.11-.656.33-.656.11 0 .22.108.38.328.98 1.53 3.06 2.186 6.56 2.186 2.35 0 6.01-.438 6.5-.82.16-.11.22-.274.22-.82 0-.11 0-.438.05-.984 0-.382.06-.546.11-2.404l.06-1.256c.05-.492.05-.876.05-1.038 0-.438-.22-.712-.55-.712-.76.056-1.47.056-2.07.056-3.39 0-6.94-1.914-6.94-3.772 0-.218.11-.326.27-.326.11 0 .27.108.55.272 1.09.766 2.62 1.148 4.75 1.148 1.64 0 3.72-.218 4.04-.438.11-.108.22-.326.22-.818v-.492l.11-1.366c.06-.656.06-1.476.06-1.968 0-2.13-.49-3.224-1.59-3.66-.38-.165-.49-.274-.49-.438 0-.602 1.42-1.312 2.57-1.312 1.91 0 3.33 1.476 3.33 3.498 0 .6-.05.928-.22 1.748-.27 1.094-.6 3.17-.6 3.552 0 .274.17.492.49.492.33 0 .93-.274 1.86-.766 1.04-.546 1.42-.71 1.92-.71.92 0 1.63.656 1.63 1.53 0 .984-1.58 1.858-5.57 3.116-.6.164-.76.328-.87.982v.22zm53.71 7.267c-1.09 1.42-2.51 3.661-2.51 4.043 0 .165.11.274.27.274.33.055 3.88-1.64 7.6-3.552 3.38-1.804 3.38-1.804 3.88-2.131.92-.711 1.42-1.53 1.42-2.459 0-1.148-1.04-2.131-2.3-2.131-2.13 0-5.52 2.459-8.36 5.956zm-7.38-14.808c-.27.71-.43 1.257-.43 1.421 0 .218.11.327.33.327.92 0 2.56-1.092 2.56-1.748 0-.492-1.03-1.312-1.58-1.312-.38 0-.44.11-.88 1.312zm4.7-.984c1.15.438 1.53.765 1.53 1.421 0 1.694-3.22 3.661-7.81 4.754-.11 0-.22.054-.22.109-.05 0-.11.055-.16.164 0 0-.11.164-.71 1.311-1.31 2.459-1.92 3.497-2.95 4.918a.715.715 0 0 0-.11.328c0 .164.11.273.27.273.11 0 .16 0 .33-.109 1.42-.82 2.78-1.202 4.15-1.202 3.06 0 4.81 2.295 4.81 6.338 0 .383 0 .602.11.602.05 0 .11-.11.27-.438l.11-.109.11-.164c3.99-6.721 8.69-10.6 12.79-10.6 2.95 0 5.62 2.513 5.62 5.245 0 2.022-1.25 3.279-4.75 4.754-2.13.874-2.62 1.038-9.83 3.552-2.96 1.038-3.72 1.312-3.83 1.42-.44.219-.44.273-.44 3.006v.546c0 2.404-.54 3.334-2.02 3.334-1.04 0-1.64-.657-1.64-1.913v-.492l.06-.492v-.546c.05-.164.05-.437.05-.711v-.71c0-.164-.05-.273-.16-.273-.28 0-1.2.546-1.92 1.202-1.69 1.421-2.62 2.95-2.62 4.371 0 2.24 2.52 3.497 7 3.497 1.96 0 4.2-.273 6.12-.764.71-.164.93-.219 1.42-.219 1.25 0 2.13.764 2.13 1.912 0 1.694-2.73 2.623-7.87 2.623-7.16 0-11.47-2.24-11.47-5.956 0-1.693.71-3.442 2.13-5.081.6-.656 2.67-2.295 4.91-3.825 0 0 .06 0 .06-.055.27-.109.33-.273.38-.819 0-.11 0-.164.06-.383.1-.819.16-1.694.16-2.459 0-3.114-.77-4.645-2.24-4.645-.27 0-.55 0-.82.055l-.11.055h-.11c-1.86.164-4.86 2.513-6.5 5.136-.66.984-.71.984-1.48 2.077-1.31 1.802-1.8 2.185-2.78 2.185-.93 0-1.64-.764-1.64-1.804 0-1.092.43-1.857 2.02-3.442 3.99-4.207 7.65-9.343 7.76-11.037 0-.273-.11-.383-.38-.383-.06 0-.06 0-1.04.055-.28.055-.49.055-.77.055-2.57 0-4.75-1.694-4.75-3.662 0-.273.11-.491.27-.491.11 0 .22.109.33.273.6.874 1.86 1.366 3.55 1.366.82 0 1.7-.109 3.39-.382.11-.055.38-.165.49-.273.71-.547 1.48-3.115 1.48-4.918 0-1.148-.44-1.913-1.42-2.514-.44-.273-.61-.437-.61-.655 0-.711 1.1-1.421 2.19-1.421 1.86 0 3.61 1.42 3.61 2.896 0 .219 0 .437-.06.765-.05.109-.05.109-.05.218 0 .711.43.984 3.17 2.022l.43.109zm36.89 30.053c3.93 1.749 6.77 4.973 6.77 7.649 0 1.476-1.03 2.678-2.29 2.678-.93 0-1.58-.491-2.35-1.693-2.46-4.099-3.17-4.973-5.9-7.705-.93-.874-1.37-1.421-1.37-1.694s.33-.492.71-.492c.93 0 2.84.547 4.43 1.257"/></g></svg>